<?xml version="1.0" standalone="no"?>
<!DOCTYPE svg PUBLIC "-//W3C//DTD SVG 20010904//EN"
 "http://www.w3.org/TR/2001/REC-SVG-20010904/DTD/svg10.dtd">
<svg version="1.0" xmlns="http://www.w3.org/2000/svg"
 width="96.000000pt" height="96.000000pt" viewBox="0 0 96.000000 96.000000"
 preserveAspectRatio="xMidYMid meet">
<metadata>
Created by potrace 1.11, written by Peter Selinger 2001-2013
</metadata>
<g transform="translate(0.000000,96.000000) scale(0.100000,-0.100000)"
fill="#000000" stroke="none">
<path d="M281 844 c-23 -21 -34 -41 -38 -71 -5 -39 -2 -46 31 -79 33 -33 40
-36 79 -31 126 17 127 187 1 204 -35 4 -46 1 -73 -23z m93 -50 c9 -8 16 -22
16 -29 0 -18 -27 -45 -45 -45 -18 0 -45 27 -45 45 0 18 27 45 45 45 7 0 21 -7
29 -16z"/>
<path d="M574 860 c-36 -14 -64 -59 -64 -101 0 -21 -9 -61 -19 -89 -16 -41
-17 -51 -5 -61 10 -8 11 -15 1 -30 -11 -18 -13 -18 -35 7 -31 33 -62 44 -124
44 -115 0 -148 -44 -148 -202 l0 -103 30 -17 30 -17 0 -101 0 -100 30 0 30 0
0 120 0 119 -30 16 c-30 15 -30 16 -30 100 0 72 3 88 20 105 28 28 112 28 140
0 29 -29 25 -55 -22 -116 l-42 -56 24 -18 24 -18 65 87 c56 73 67 82 69 63 2
-13 -7 -40 -22 -60 -14 -20 -30 -50 -36 -67 -18 -47 -40 -172 -40 -226 l0 -49
196 0 195 0 -2 63 c-3 70 -14 130 -35 199 -15 45 -14 48 10 97 15 28 26 56 26
63 0 7 -17 29 -37 50 -28 29 -34 41 -26 49 9 9 9 19 -2 38 -7 15 -16 47 -20
71 -11 85 -17 100 -47 125 -30 25 -66 31 -104 15z m69 -64 c8 -8 17 -38 21
-68 14 -95 15 -91 -28 -96 -61 -6 -87 4 -81 31 10 38 13 61 14 89 2 48 44 73
74 44z m10 -278 c-2 -29 -6 -59 -9 -67 -2 -8 5 -20 16 -28 40 -28 76 -126 85
-230 l3 -43 -133 0 -134 0 5 53 c8 90 35 166 70 204 18 19 31 40 29 46 -2 7
-6 36 -10 65 l-6 52 45 0 44 0 -5 -52z m87 -22 c0 -8 -7 -19 -15 -26 -13 -10
-15 -9 -15 12 0 14 3 28 6 31 9 9 24 -2 24 -17z"/>
</g>
</svg>
